# AST/ASF file generated using VICON BodyLanguage
# -----------------------------------------------
:version 1.10
:name VICON
:units
  mass 1.0
  length 0.45
  angle deg
:documentation
   .ast/.asf automatically generated from VICON data using
   VICON BodyBuilder and BodyLanguage model FoxedUp or BRILLIANT.MOD
:root
   order TX TY TZ RX RY RZ
   axis XYZ
   position 0 0 0  
   orientation 0 0 0 
:bonedata
  begin
     id 1 
     name lhipjoint
     direction 0.700308 -0.549349 0.455834 
     length 2.59063 
     axis 0 0 0  XYZ
  end
  begin
     id 2 
     name lfemur
     direction 0.34202 -0.939693 0  
     length 6.31066  
     axis 0 0 20  XYZ
    dof rx ry rz
    limits (-160.0 20.0)
           (-70.0 70.0)
           (-60.0 70.0)
  end
  begin
     id 3 
     name ltibia
     direction 0.34202 -0.939693 0   
     length 7.36093   
     axis 0 0 20   XYZ
    dof rx
    limits (-10.0 170.0)
  end
  begin
     id 4 
     name lfoot
     direction 0.0905332 -0.248738 0.96433   
     length 2.0233   
     axis -90 7.62852e-016 20   XYZ
    dof rx rz
    limits (-45.0 90.0)
           (-70.0 20.0)
  end
  begin
     id 5 
     name ltoes
     direction 1.53573e-011 -4.21855e-011 1   
     length 1.01524   
     axis -90 7.62852e-016 20   XYZ
    dof rx
    limits (-90.0 20.0)
  end
  begin
     id 6 
     name rhipjoint
     direction -0.61416 -0.607328 0.503944   
     length 2.34332  
     axis 0 0 0  XYZ 
  end
  begin
     id 7 
     name rfemur
     direction -0.34202 -0.939693 0   
     length 6.58548   
     axis 0 0 -20   XYZ
    dof rx ry rz
    limits (-160.0 20.0)
           (-70.0 70.0)
           (-70.0 60.0)
  end
  begin
     id 8 
     name rtibia
     direction -0.34202 -0.939693 0   
     length 7.20707   
     axis 0 0 -20   XYZ
    dof rx
    limits (-10.0 170.0)
 end
 begin
     id 9 
     name rfoot
     direction -0.136772 -0.375778 0.916561   
     length 1.92184  
     axis -90 -7.62852e-016 -20   XYZ
    dof rx rz
    limits (-45.0 90.0)
           (-20.0 70.0)
  end
  begin
     id 10 
     name rtoes
     direction -1.53535e-011 -4.21828e-011 1   
     length 0.951089   
     axis -90 -7.62852e-016 -20   XYZ
    dof rx
    limits (-90.0 20.0)
  end
  begin
     id 11 
     name lowerback
     direction -0.0444974 0.988086 -0.147332   
     length 1.9609   
     axis 0 0 0   XYZ
    dof rx ry rz
    limits (-20.0 45.0)
           (-30.0 30.0)
           (-30.0 30.0)
  end
  begin
     id 12 
     name upperback
     direction 0.00613146 0.999513 0.0306081   
     length 1.94944   
     axis 0 0 0   XYZ
    dof rx ry rz
    limits (-20.0 45.0)
           (-30.0 30.0)
           (-30.0 30.0)
  end
  begin
     id 13 
     name thorax
     direction 0.0254621 0.994518 0.101418   
     length 2.0119   
     axis 0 0 0   XYZ
    dof rx ry rz
    limits (-20.0 45.0)
           (-30.0 30.0)
           (-30.0 30.0)
  end
  begin
     id 14 
     name lowerneck
     direction 0.0168698 0.977854 0.208608   
     length 1.6375   
     axis 0 0 0   XYZ
    dof rx ry rz
    limits (-20.0 45.0)
           (-30.0 30.0)
           (-30.0 30.0)
  end
  begin
     id 15 
     name upperneck
     direction -0.0283988 0.989338 -0.142843   
     length 1.6851   
     axis 0 0 0   XYZ
    dof rx ry rz
    limits (-20.0 45.0)
           (-30.0 30.0)
           (-30.0 30.0)
  end
  begin
     id 16
     name head
     direction -0.0129422 0.99741 -0.0707489  
     length 1.69029  
     axis 0 0 0   XYZ
    dof rx ry rz
    limits (-20.0 45.0)
           (-30.0 30.0)
           (-30.0 30.0)
  end
  begin
     id 17 
     name lclavicle
     direction 0.820295 0.564628 -0.0911715  
     length 3.16484  
     axis 0 0 0   XYZ
    dof ry rz
    limits (-20.0 10.0)
           (0.0 20.0)
  end
  begin
     id 18 
     name lhumerus
     direction 1 -4.48969e-011 1.00186e-027   
     length 5.17853   
     axis 180 -30 -90   XYZ
    dof rx ry rz
    limits (-60.0 90.0)
           (-90.0 90.0)
           (-90.0 90.0)
  end
  begin
     id 19
     name lradius
     direction 1 -4.48966e-011 -1.52922e-027   
     length 3.40399   
     axis 180 -30 -90   XYZ
    dof rx
    limits (-10.0 170.0)
  end
  begin
     id 20
     name lwrist
     direction 1 -4.48981e-011 -3.80893e-027   
     length 1.70199   
     axis 1.1049e-015 90 90   XYZ
    dof ry
    limits (-180.0 0.0)
 end
  begin
     id 21 
     name lhand
     direction 1 -4.48957e-011 -7.61786e-027   
     length 0.708964   
     axis 4.86085e-015 90 90   XYZ
    dof rx rz
    limits (-90.0 90.0)
           (-45.0 45.0)
  end
  begin
     id 22 
     name lfingers
     direction 1 -4.48929e-011 -1.52357e-026   
     length 0.571585   
     axis 9.7217e-015 90 90   XYZ
    dof rx
    limits (0.0 90.0)
  end
  begin
     id 23
     name lthumb
     direction 0.707107 -6.34905e-011 0.707107   
     length 0.820685   
     axis -90 45 2.85299e-015   XYZ
    dof rx rz
    limits (-45.0 45.0)
           (-45.0 45.0)
  end
  begin
     id 24 
     name rclavicle
     direction -0.858602 0.463947 -0.218075   
     length 3.35137  
     axis 0 0 0   XYZ 
    dof ry rz
    limits (-10.0 20.0)
           (-20.0 0.0)
  end
  begin
     id 25 
     name rhumerus
     direction -1 -4.48969e-011 -1.98511e-027  
     length 5.42351   
     axis 180 30 90   XYZ
    dof rx ry rz
    limits (-90.0 60.0)
           (-90.0 90.0)
           (-90.0 90.0)
  end
  begin
     id 26 
     name rradius
     direction -1 -4.48961e-011 -2.82624e-027   
     length 3.42066   
     axis 180 30 90   XYZ
    dof rx
    limits (-10.0 170.0)
  end
  begin
     id 27 
     name rwrist
     direction -1 -4.48966e-011 -3.80893e-027   
     length 1.71033   
     axis 1.1049e-015 -90 -90   XYZ
    dof ry
    limits (-180.0 0.0)
  end
  begin
     id 28
     name rhand
     direction -1 -4.48964e-011 -7.61786e-027   
     length 0.743608   
     axis 4.86085e-015 -90 -90   XYZ
    dof rx rz
    limits (-90.0 90.0)
           (-45.0 45.0)
  end
  begin
     id 29
     name rfingers
     direction -1 -4.48961e-011 -1.52357e-026   
     length 0.599516   
     axis 9.7217e-015 -90 -90   XYZ
    dof rx
    limits (0.0 90.0)
  end
  begin
     id 30
     name rthumb
     direction -0.707107 -6.34913e-011 0.707107   
     length 0.860789   
     axis -90 -45 -2.85299e-015   XYZ
    dof rx rz
    limits (-45.0 45.0)
           (-45.0 45.0)
  end
:hierarchy
  begin
    root lhipjoint rhipjoint lowerback
    lhipjoint lfemur
    lfemur ltibia
    ltibia lfoot
    lfoot ltoes
    rhipjoint rfemur
    rfemur rtibia
    rtibia rfoot
    rfoot rtoes
    lowerback upperback
    upperback thorax
    thorax lowerneck lclavicle rclavicle
    lowerneck upperneck
    upperneck head
    lclavicle lhumerus
    lhumerus lradius
    lradius lwrist
    lwrist lhand lthumb
    lhand lfingers
    rclavicle rhumerus
    rhumerus rradius
    rradius rwrist
    rwrist rhand rthumb
    rhand rfingers
  end

#!OML:ASF E:\mmandel\Project 1\Capture day 1\Session 2\Subject.ASF
:FULLY-SPECIFIED
:DEGREES
52
root 22.453 2.3397 -0.0967963 175.802 75.0017 85.2227
lowerback 4.34209 1.52304 -1.80706
upperback -1.37192 1.91787 -0.301519
thorax -3.89884 0.994159 0.554469
lowerneck -7.87785 14.4468 18.6162
upperneck 17.9717 19.9126 -15.3783
head 10.5462 9.2183 -5.60993
rclavicle -3.18055e-015 -1.72943e-014
rhumerus 8.69692 -60.1965 -6.07922
rradius 70.8212
rwrist -22.5296
rhand -15.4613 27.356
rfingers 7.12502
rthumb 10.7198 -2.35049
lclavicle -3.18055e-015 -1.72943e-014
lhumerus 22.1172 37.6441 56.1696
lradius 88.4007
lwrist 35.4984
lhand -19.7735 -31.2938
lfingers 7.12502
lthumb 6.55844 -1.41532
rfemur -0.620316 -9.42525 19.1429
rtibia 14.5797
rfoot -48.6942 -39.0548
rtoes 41.5448
lfemur -66.6629 60.8715 -19.4313
ltibia 79.7958
lfoot 8.03307 11.0846
ltoes 20.3109
53
root 22.45 2.3401 -0.0981598 175.911 75.0515 85.4095
lowerback 4.41312 1.54612 -1.75568
upperback -1.36076 1.95095 -0.276058
thorax -3.92733 1.00963 0.547532
lowerneck -7.87438 14.4365 18.6264
upperneck 18.0137 19.9096 -15.4042
head 10.5646 9.21505 -5.62218
rclavicle 7.31528e-014 1.20637e-013
rhumerus 8.64848 -60.1595 -5.97333
rradius 70.8112
rwrist -22.5492
rhand -15.4757 27.3246
rfingers 7.12502
rthumb 10.7059 -2.38258
lclavicle 7.31528e-014 1.20637e-013
lhumerus 22.0006 37.5708 56.1332
lradius 88.4797
lwrist 35.5931
lhand -20.0014 -31.3315
lfingers 7.12502
lthumb 6.33851 -1.44629
rfemur -0.555655 -9.39418 19.1908
rtibia 14.5803
rfoot -48.6667 -39.1074
rtoes 41.3477
lfemur -66.5744 60.9808 -19.2754
ltibia 79.8462
lfoot 8.12373 10.9805
ltoes 19.7135
54
root 22.4463 2.34139 -0.0986114 175.944 75.079 85.4591
lowerback 4.46267 1.57267 -1.76757
upperback -1.37989 1.98537 -0.253437
thorax -3.97725 1.02775 0.572933
lowerneck -7.81759 14.428 18.5901
upperneck 17.9512 19.907 -15.4223
head 10.529 9.21484 -5.62708
rclavicle -3.18055e-015 -3.1408e-014
rhumerus 8.49212 -60.1057 -5.78061
rradius 70.8219
rwrist -22.6064
rhand -15.4867 27.3308
rfingers 7.12502
rthumb 10.6954 -2.37701
lclavicle -3.18055e-015 -3.1408e-014
lhumerus 21.9446 37.5289 56.1328
lradius 88.4755
lwrist 35.6088
lhand -20.0214 -31.4072
lfingers 7.12502
lthumb 6.31911 -1.52141
rfemur -0.546305 -9.36338 19.2098
rtibia 14.5669
rfoot -48.6965 -39.0289
rtoes 41.5819
lfemur -66.5765 61.0222 -19.2522
ltibia 79.8683
lfoot 8.15425 10.9263
ltoes 19.2303
55
root 22.4451 2.34124 -0.0980153 176.058 75.1378 85.5368
lowerback 4.42645 1.59353 -1.76394
upperback -1.39666 2.01525 -0.230959
thorax -3.97559 1.04305 0.59241
lowerneck -7.78016 14.4136 18.5507
upperneck 17.8991 19.897 -15.448
head 10.5 9.20938 -5.63465
rclavicle -8.5875e-014 -9.13664e-014
rhumerus 8.52092 -60.0923 -5.77204
rradius 70.7956
rwrist -22.6015
rhand -15.4855 27.376
rfingers 7.12502
rthumb 10.6965 -2.33174
lclavicle -8.5875e-014 -9.13664e-014
lhumerus 21.9362 37.5576 56.1362
lradius 88.4775
lwrist 35.6685
lhand -19.9428 -31.3468
lfingers 7.12502
lthumb 6.39503 -1.46337
rfemur -0.610648 -9.30749 19.257
rtibia 14.5998
rfoot -48.8929 -38.7915
rtoes 42.0227
lfemur -66.6558 61.0885 -19.2756
ltibia 79.8839
lfoot 8.16875 10.9063
ltoes 19.1505
56
root 22.4434 2.34083 -0.0973017 176.33 75.224 85.8182
lowerback 4.39596 1.61386 -1.70476
upperback -1.38087 2.04814 -0.193461
thorax -3.94204 1.05817 0.59654
lowerneck -7.78374 14.3924 18.5588
upperneck 17.9007 19.88 -15.5073
head 10.5064 9.19785 -5.66048
rclavicle 1.01778e-013 1.13655e-013
rhumerus 8.65938 -60.1274 -5.8598
rradius 70.7593
rwrist -22.5666
rhand -15.4458 27.3956
rfingers 7.12502
rthumb 10.7347 -2.31015
lclavicle 1.01778e-013 1.13655e-013
lhumerus 21.9315 37.6 56.1526
lradius 88.5065
lwrist 35.675
lhand -19.9206 -31.3023
lfingers 7.12502
lthumb 6.41644 -1.41945
rfemur -0.615075 -9.21018 19.3601
rtibia 14.5853
rfoot -48.9692 -38.754
rtoes 42.2685
lfemur -66.6693 61.2077 -19.166
ltibia 79.9141
lfoot 8.16136 10.8914
ltoes 19.4077
